<?xml version="1.0" encoding="UTF-8" ?>
<!DOCTYPE svg PUBLIC "-//W3C//DTD SVG 1.1//EN" "http://www.w3.org/Graphics/SVG/1.1/DTD/svg11.dtd">
<svg width="348pt" height="120pt" viewBox="0 0 348 120" version="1.1" xmlns="http://www.w3.org/2000/svg">
<g id="#ffffffff">
</g>
<g id="#2a2e47ff">
<path fill="#2a2e47" opacity="1.00" d=" M 27.58 0.00 L 30.72 0.00 C 32.08 0.53 33.41 1.14 34.74 1.74 C 33.95 2.58 33.17 3.42 32.40 4.27 C 30.20 3.14 26.55 2.73 25.92 5.90 C 24.36 9.41 30.01 12.95 31.69 8.92 C 30.90 8.81 29.32 8.60 28.53 8.49 C 28.54 7.75 28.56 6.27 28.57 5.53 C 30.54 5.53 32.50 5.54 34.47 5.54 C 34.46 8.10 34.43 10.65 34.42 13.21 C 30.78 13.89 26.09 14.91 23.43 11.54 C 19.97 7.61 22.41 0.86 27.58 0.00 Z" />
<path fill="#2a2e47" opacity="1.00" d=" M 88.74 0.00 L 92.45 0.00 C 96.10 1.26 98.55 5.13 97.35 8.96 C 95.94 15.33 85.50 15.77 83.48 9.64 C 81.93 5.55 84.32 0.74 88.74 0.00 M 89.45 3.45 C 85.46 4.31 86.68 11.65 90.96 10.59 C 95.38 9.76 93.87 2.19 89.45 3.45 Z" />
<path fill="#2a2e47" opacity="1.00" d=" M 38.85 1.01 C 41.78 1.08 44.75 0.80 47.66 1.23 C 50.43 2.99 49.27 6.75 46.99 8.39 C 48.05 10.16 49.13 11.92 50.21 13.67 C 48.79 13.71 47.37 13.76 45.95 13.80 C 44.96 11.94 43.93 10.09 42.57 8.47 C 42.51 10.22 42.49 11.97 42.49 13.72 C 41.58 13.72 39.76 13.72 38.85 13.72 C 38.85 9.48 38.85 5.25 38.85 1.01 M 42.53 3.25 C 42.51 3.91 42.48 5.25 42.46 5.92 C 43.49 5.54 44.95 5.84 45.67 4.89 C 45.68 3.14 43.70 3.59 42.53 3.25 Z" />
<path fill="#2a2e47" opacity="1.00" d=" M 53.70 1.01 C 56.77 1.01 59.84 1.01 62.90 1.01 C 62.90 1.63 62.90 2.87 62.90 3.49 C 61.03 3.49 59.16 3.53 57.30 3.53 C 57.29 3.99 57.29 4.89 57.29 5.35 C 59.06 5.35 60.84 5.37 62.61 5.38 C 62.61 6.12 62.61 7.62 62.61 8.37 C 60.84 8.37 59.06 8.40 57.28 8.41 C 57.29 8.92 57.29 9.95 57.30 10.46 C 59.31 10.46 61.32 10.48 63.33 10.48 C 63.30 11.31 63.25 12.96 63.22 13.79 C 60.05 13.72 56.89 13.72 53.72 13.74 C 53.70 9.50 53.71 5.25 53.70 1.01 Z" />
<path fill="#2a2e47" opacity="1.00" d=" M 67.37 1.00 C 68.87 1.01 70.37 1.02 71.88 1.03 C 73.25 3.35 74.68 5.63 76.16 7.88 C 76.15 5.62 75.71 3.32 76.20 1.09 C 77.06 1.06 78.76 1.00 79.62 0.97 C 79.60 5.21 79.60 9.45 79.62 13.69 C 78.66 13.72 76.72 13.78 75.75 13.80 C 74.11 11.23 72.50 8.63 70.84 6.07 C 70.95 8.59 71.03 11.12 70.85 13.64 C 69.99 13.69 68.25 13.77 67.38 13.81 C 67.38 9.54 67.39 5.27 67.37 1.00 Z" />
<path fill="#2a2e47" opacity="1.00" d=" M 100.91 1.05 C 103.83 1.06 106.78 0.83 109.69 1.20 C 111.69 2.36 111.01 4.90 110.16 6.59 C 111.46 8.26 112.40 10.89 110.42 12.48 C 107.74 14.49 104.08 13.48 100.97 13.73 C 100.87 9.50 100.91 5.28 100.91 1.05 M 104.53 3.25 C 104.55 3.77 104.58 4.79 104.60 5.31 C 105.09 5.34 106.08 5.40 106.58 5.44 C 106.89 5.04 107.53 4.26 107.84 3.86 C 106.74 3.65 105.64 3.45 104.53 3.25 M 104.57 8.20 C 104.58 8.83 104.61 10.10 104.62 10.74 C 105.68 10.46 106.96 10.66 107.82 9.86 C 108.18 7.82 105.80 8.55 104.57 8.20 Z" />
<path fill="#2a2e47" opacity="1.00" d=" M 115.32 1.00 C 116.27 1.01 118.16 1.04 119.11 1.05 C 119.03 4.18 119.03 7.31 119.09 10.43 C 120.70 10.42 122.30 10.41 123.91 10.40 C 123.91 11.23 123.90 12.89 123.90 13.72 C 121.04 13.73 118.18 13.73 115.32 13.72 C 115.33 9.48 115.34 5.24 115.32 1.00 Z" />
<path fill="#2a2e47" opacity="1.00" d=" M 127.31 1.00 C 130.40 1.01 133.48 1.01 136.56 1.02 C 136.56 1.63 136.54 2.85 136.53 3.46 C 134.40 3.45 132.27 3.54 130.17 3.89 C 131.41 6.15 134.17 5.17 136.23 5.40 C 136.23 6.14 136.23 7.61 136.22 8.34 C 134.20 8.74 130.60 7.19 130.50 10.39 C 132.60 10.46 134.71 10.48 136.81 10.49 C 136.83 11.29 136.87 12.89 136.89 13.69 C 133.70 13.74 130.50 13.74 127.31 13.72 C 127.33 9.48 127.33 5.24 127.31 1.00 Z" />
<path fill="#2a2e47" opacity="1.00" d=" M 0.00 20.69 C 3.73 20.68 7.46 20.68 11.19 20.70 C 11.19 40.96 11.18 61.22 11.19 81.48 C 7.46 81.50 3.73 81.50 0.00 81.47 L 0.00 20.69 Z" />
<path fill="#2a2e47" opacity="1.00" d=" M 21.88 27.93 C 21.86 22.47 28.71 18.65 33.28 21.77 C 43.17 28.69 52.87 35.90 62.68 42.93 C 62.67 47.71 62.70 52.49 62.66 57.27 C 52.82 50.14 42.99 43.01 33.13 35.91 C 33.10 51.10 33.12 66.28 33.12 81.46 C 29.35 81.51 25.58 81.50 21.81 81.48 C 21.87 63.63 21.73 45.77 21.88 27.93 Z" />
<path fill="#2a2e47" opacity="1.00" d=" M 93.54 22.57 C 96.85 20.12 101.17 20.94 105.01 20.81 C 112.73 20.92 121.05 19.97 128.03 23.99 C 140.75 31.21 140.18 53.49 126.65 59.56 C 120.33 62.68 113.10 61.72 106.30 61.88 C 106.28 58.22 106.27 54.56 106.33 50.90 C 111.36 50.57 116.90 51.97 121.47 49.28 C 125.29 46.74 125.44 41.43 124.38 37.43 C 123.30 34.00 119.72 32.27 116.36 32.03 C 111.43 31.64 106.47 31.97 101.53 31.86 C 101.47 48.40 101.50 64.94 101.51 81.49 C 97.53 81.50 93.55 81.50 89.58 81.49 C 89.60 64.65 89.58 47.82 89.58 30.98 C 89.40 27.73 90.82 24.42 93.54 22.57 Z" />
<path fill="#2a2e47" opacity="1.00" d=" M 0.00 88.46 C 1.28 88.46 2.56 88.46 3.84 88.46 C 3.87 91.94 3.47 95.48 4.11 98.92 C 5.33 102.77 11.69 102.72 12.78 98.82 C 13.45 95.41 13.06 91.90 13.09 88.45 C 14.33 88.46 15.57 88.46 16.81 88.46 C 16.33 93.52 18.56 100.24 13.63 103.70 C 8.88 107.45 0.94 104.59 0.00 98.50 L 0.00 88.46 Z" />
<path fill="#2a2e47" opacity="1.00" d=" M 24.39 89.36 C 27.40 87.50 31.08 88.17 34.30 89.03 C 33.71 90.15 33.13 91.27 32.55 92.40 C 28.74 90.05 22.62 93.17 23.90 97.93 C 25.09 102.42 31.08 102.77 34.09 99.90 C 32.58 98.96 30.92 98.37 29.14 98.35 C 29.19 97.19 29.24 96.04 29.30 94.88 C 32.04 94.90 34.79 94.93 37.54 95.05 C 37.51 96.24 37.49 97.43 37.46 98.61 C 36.72 98.54 35.23 98.40 34.48 98.33 C 34.62 98.85 34.90 99.88 35.04 100.39 C 35.53 100.61 36.52 101.04 37.01 101.26 C 33.79 107.01 24.19 106.54 21.06 100.85 C 18.55 96.96 20.40 91.43 24.39 89.36 Z" />
<path fill="#2a2e47" opacity="1.00" d=" M 39.10 105.16 C 42.52 99.52 46.00 93.90 49.61 88.38 C 52.99 94.02 56.64 99.50 59.99 105.16 C 58.93 105.18 56.79 105.20 55.73 105.21 C 53.66 102.06 51.67 98.86 49.72 95.64 C 47.28 98.62 45.52 102.08 43.32 105.23 C 42.27 105.21 40.15 105.18 39.10 105.16 Z" />
</g>
<g id="#23a638ff">
<path fill="#23a638" opacity="1.00" d=" M 0.00 9.61 C 1.14 4.28 5.82 0.60 11.16 0.14 C 11.20 4.66 11.19 9.19 11.19 13.71 C 7.46 13.74 3.73 13.74 0.00 13.70 L 0.00 9.61 Z" />
<path fill="#23a638" opacity="1.00" d=" M 67.16 20.69 C 70.85 20.68 74.53 20.68 78.22 20.69 C 78.20 38.47 78.26 56.25 78.20 74.02 C 78.45 79.68 71.28 83.69 66.63 80.36 C 56.81 73.48 47.21 66.28 37.42 59.36 C 37.37 54.56 37.37 49.76 37.42 44.96 C 47.32 52.15 57.24 59.32 67.17 66.48 C 67.17 51.22 67.18 35.95 67.16 20.69 Z" />
<path fill="#23a638" opacity="1.00" d=" M 160.53 21.38 C 166.78 21.23 173.04 21.33 179.29 21.32 C 179.29 23.51 179.31 25.71 179.35 27.91 C 175.52 28.28 171.67 28.14 167.83 28.16 C 167.94 34.73 167.62 41.30 167.97 47.86 C 171.37 48.35 174.81 48.03 178.23 48.21 C 178.18 50.37 178.15 52.53 178.14 54.69 C 174.71 54.73 171.27 54.74 167.84 54.74 C 167.87 61.40 167.76 68.06 167.90 74.72 C 171.70 74.67 175.50 74.68 179.30 74.69 C 179.29 76.96 179.30 79.22 179.30 81.49 C 173.06 81.50 166.81 81.50 160.57 81.48 C 160.57 61.45 160.65 41.41 160.53 21.38 Z" />
<path fill="#23a638" opacity="1.00" d=" M 243.27 21.27 C 245.95 19.00 250.61 21.46 249.91 25.01 C 249.99 28.60 244.81 30.08 242.68 27.43 C 241.03 25.72 241.36 22.65 243.27 21.27 Z" />
<path fill="#23a638" opacity="1.00" d=" M 191.81 35.85 C 196.06 34.38 201.45 34.85 204.63 38.32 C 206.62 40.33 207.26 43.25 207.22 45.99 C 207.21 57.83 207.21 69.66 207.21 81.49 C 204.84 81.49 202.47 81.49 200.10 81.48 C 200.08 69.30 200.29 57.11 200.01 44.95 C 199.93 40.64 192.88 40.66 192.83 44.96 C 192.66 57.12 192.78 69.30 192.79 81.47 C 190.40 81.49 188.01 81.49 185.62 81.49 C 185.67 69.34 185.58 57.20 185.66 45.05 C 185.55 41.08 188.04 37.19 191.81 35.85 Z" />
<path fill="#23a638" opacity="1.00" d=" M 214.48 41.35 C 217.36 33.50 229.96 32.86 234.02 39.96 C 235.83 43.07 235.27 46.81 235.36 50.25 C 233.00 50.25 230.64 50.25 228.28 50.25 C 228.01 47.65 229.12 44.24 226.72 42.36 C 224.65 40.57 221.13 42.21 221.00 44.88 C 220.77 47.41 220.32 50.61 222.48 52.48 C 225.92 55.42 230.64 56.80 233.35 60.60 C 236.15 64.48 235.41 69.60 235.15 74.08 C 233.89 82.32 222.31 84.87 216.78 79.26 C 213.19 76.07 213.76 70.89 213.77 66.56 C 216.14 66.56 218.51 66.56 220.88 66.57 C 220.98 68.93 220.53 71.43 221.36 73.70 C 222.65 76.55 227.41 76.09 228.08 73.00 C 228.34 69.68 229.16 65.24 225.84 63.13 C 221.73 60.06 216.00 58.12 214.32 52.77 C 213.46 49.05 213.42 45.02 214.48 41.35 Z" />
<path fill="#23a638" opacity="1.00" d=" M 259.23 38.22 C 262.97 34.19 269.78 34.11 274.04 37.38 C 278.10 34.31 284.38 34.16 288.15 37.79 C 290.48 39.84 291.31 43.04 291.28 46.05 C 291.29 57.86 291.26 69.68 291.28 81.49 C 288.90 81.49 286.53 81.49 284.15 81.48 C 284.19 69.64 284.21 57.81 284.16 45.97 C 284.26 44.07 283.21 41.63 281.00 41.66 C 279.10 41.34 277.41 43.28 277.55 45.10 C 277.44 57.23 277.53 69.36 277.52 81.48 C 275.14 81.49 272.76 81.49 270.39 81.50 C 270.39 69.99 270.38 58.49 270.41 46.99 C 270.39 45.29 270.44 43.19 268.77 42.18 C 266.78 40.59 263.68 42.51 263.82 44.95 C 263.57 57.15 263.90 69.36 263.67 81.57 C 261.31 81.51 258.96 81.49 256.62 81.47 C 256.64 69.64 256.62 57.82 256.62 46.00 C 256.58 43.21 257.25 40.29 259.23 38.22 Z" />
<path fill="#23a638" opacity="1.00" d=" M 299.16 40.14 C 302.96 33.17 314.96 33.33 318.46 40.50 C 319.90 43.46 319.43 46.84 319.52 50.02 C 319.36 58.01 319.76 66.01 319.33 73.99 C 318.32 82.81 305.45 85.10 300.17 78.73 C 297.46 75.45 297.86 70.89 297.86 66.92 C 297.84 63.51 298.90 59.86 301.77 57.77 C 304.97 55.48 308.79 54.30 312.35 52.70 C 312.35 49.80 312.62 46.88 312.16 44.00 C 311.19 41.24 307.05 40.76 305.61 43.36 C 304.77 45.54 305.23 47.96 305.10 50.24 C 302.68 50.24 300.26 50.24 297.85 50.24 C 297.92 46.86 297.56 43.24 299.16 40.14 M 305.61 63.67 C 304.72 66.66 305.07 69.92 305.29 72.99 C 305.81 76.54 311.56 76.55 312.24 73.05 C 312.61 68.72 312.29 64.37 312.37 60.04 C 310.10 61.17 307.42 61.79 305.61 63.67 Z" />
<path fill="#23a638" opacity="1.00" d=" M 329.60 37.64 C 335.57 32.42 347.12 35.26 348.00 43.84 L 348.00 90.49 C 347.13 98.23 336.98 101.35 331.34 96.59 C 328.12 94.15 328.03 89.87 327.73 86.22 C 330.15 86.24 332.58 86.22 335.02 86.28 C 335.01 88.90 335.52 91.55 338.03 92.91 C 341.94 90.67 340.64 85.89 340.88 82.17 C 337.63 82.28 334.12 82.62 331.21 80.85 C 328.02 79.16 326.34 75.53 326.46 72.01 C 326.43 63.33 326.47 54.65 326.44 45.97 C 326.36 42.93 327.18 39.67 329.60 37.64 M 335.26 42.19 C 333.13 43.35 333.65 46.01 333.55 48.02 C 333.65 56.02 333.50 64.02 333.61 72.02 C 333.29 74.85 336.89 76.73 339.13 75.14 C 341.02 74.16 340.78 71.81 340.85 70.03 C 340.75 61.69 340.97 53.34 340.75 44.99 C 340.82 42.33 337.37 40.64 335.26 42.19 Z" />
<path fill="#23a638" opacity="1.00" d=" M 242.29 35.91 C 244.67 35.87 247.04 35.84 249.42 35.84 C 249.45 51.05 249.41 66.26 249.44 81.48 C 247.07 81.49 244.70 81.50 242.34 81.52 C 242.27 66.32 242.37 51.11 242.29 35.91 Z" />
</g>
<g id="#e84f0fff">
<path fill="#e84f0f" opacity="1.00" d=" M 45.03 109.81 C 46.47 107.39 47.97 104.99 49.70 102.76 C 51.13 105.12 52.58 107.47 54.06 109.80 C 51.05 109.84 48.04 109.85 45.03 109.81 Z" />
</g>
</svg>
